<?xml version="1.0" encoding="utf-8"?>
<!-- Generator: Adobe Illustrator 17.0.0, SVG Export Plug-In . SVG Version: 6.00 Build 0)  -->
<!DOCTYPE svg PUBLIC "-//W3C//DTD SVG 1.1//EN" "http://www.w3.org/Graphics/SVG/1.1/DTD/svg11.dtd">
<svg width="1.4em" height="1.4em" viewBox="0 0 62 62" version="1.1" xmlns="http://www.w3.org/2000/svg">
  <g id="#419edaff">
    <path fill="#419eda" opacity="1.00" d=" M 29.00 8.00 L 34.00 8.00 C 34.00 15.00 34.00 22.00 34.00 29.00 C 41.00 29.00 48.00 29.00 55.00 29.00 L 55.00 34.00 C 48.00 34.00 41.00 34.00 34.00 34.00 C 34.00 41.00 34.00 48.00 34.00 55.00 L 29.00 55.00 C 29.00 48.00 29.00 41.00 29.00 34.00 C 22.00 34.00 15.00 34.00 8.00 34.00 L 8.00 29.00 C 15.00 29.00 22.00 29.00 29.00 29.00 C 29.00 22.00 29.00 15.00 29.00 8.00 Z" />
  </g>
</svg>