<?xml version="1.0" encoding="utf-8"?>
<!-- Generator: Adobe Illustrator 17.0.0, SVG Export Plug-In . SVG Version: 6.00 Build 0)  -->
<!DOCTYPE svg PUBLIC "-//W3C//DTD SVG 1.1//EN" "http://www.w3.org/Graphics/SVG/1.1/DTD/svg11.dtd">
<svg version="1.1" id="Layer_1" xmlns="http://www.w3.org/2000/svg" xmlns:xlink="http://www.w3.org/1999/xlink" x="0px" y="0px"
	 width="140px" height="160px" viewBox="0 0 140 160" style="enable-background:new 0 0 140 160;" xml:space="preserve">
<style type="text/css">
	.st0{fill:none;stroke:#032B5A;stroke-width:6;stroke-linecap:round;stroke-linejoin:round;}
</style>
<g>
	<g>
		<path class="st0" d="M14.8,108.4c0.4,2.1,2.2,3.6,4.4,3.6l75.5,0c2.6,0,4.9-1,6.6-2.7l19.6-19.6c1.8-1.7,2.9-4.1,2.9-6.8V58.5
			c0-5.2-4.2-9.4-9.4-9.4H19.1c-2.5,0-4.4,2-4.4,4.4V59c0,2.5,2,4.4,4.4,4.4h39.5c2.5,0,4.4,2,4.4,4.4v24.9c0,2.5-2,4.4-4.4,4.4
			H19.2c-2.5,0-4.4-2-4.4-4.4V74.9"/>
	</g>
</g>
</svg>
