<?xml version="1.0" encoding="UTF-8" ?>
<!DOCTYPE svg PUBLIC "-//W3C//DTD SVG 1.1//EN" "http://www.w3.org/Graphics/SVG/1.1/DTD/svg11.dtd">
<svg width="137pt" height="157pt" viewBox="0 0 137 157" version="1.1" xmlns="http://www.w3.org/2000/svg">
<g id="#032b5aff">
<path fill="#032b5a" opacity="1.00" d=" M 33.91 53.80 C 50.06 45.39 69.31 43.48 86.95 47.75 C 104.20 51.92 119.65 62.57 130.14 76.83 C 132.81 80.56 135.48 84.39 137.00 88.76 L 137.00 90.65 C 136.71 94.32 134.10 97.36 130.74 98.67 C 121.78 102.43 112.82 106.20 103.88 110.00 C 100.62 111.50 96.34 112.05 93.45 109.47 C 91.19 107.30 89.24 104.77 87.78 101.99 C 87.62 99.98 89.93 98.10 91.76 99.22 C 93.90 100.76 95.04 103.30 97.01 105.03 C 98.44 106.37 100.32 105.29 101.83 104.76 C 110.47 101.06 119.11 97.36 127.82 93.80 C 129.19 93.19 130.81 92.60 131.35 91.03 C 131.56 89.55 130.65 88.26 130.06 86.98 C 122.08 72.59 108.77 61.34 93.35 55.64 C 77.78 49.66 60.05 49.55 44.41 55.36 C 28.24 61.15 14.20 73.00 6.29 88.30 C 5.01 90.02 5.71 92.49 7.78 93.15 C 16.85 97.12 26.01 100.90 35.08 104.91 C 36.63 105.51 38.66 106.61 40.06 105.12 C 42.60 102.29 44.60 98.97 47.68 96.66 C 54.79 90.54 64.67 88.06 73.87 89.68 C 75.49 89.58 78.11 91.06 78.97 89.00 C 82.45 81.33 85.29 73.36 88.78 65.70 C 89.69 63.23 93.37 63.55 94.09 66.02 C 93.90 68.72 92.56 71.14 91.58 73.61 C 88.41 80.85 85.68 88.28 82.38 95.46 C 81.21 98.05 78.15 96.39 76.18 95.93 C 65.64 92.42 53.15 96.70 46.75 105.73 C 45.15 107.80 43.62 110.29 40.93 111.03 C 38.01 112.10 34.96 111.01 32.26 109.84 C 23.63 106.06 14.95 102.41 6.30 98.69 C 2.96 97.38 0.33 94.39 0.00 90.75 L 0.00 88.96 C 1.47 84.23 4.46 80.20 7.30 76.23 C 14.38 66.93 23.44 59.05 33.91 53.80 Z" />
</g>
</svg>
