<?xml version="1.0" encoding="utf-8"?>
<!-- Generator: Adobe Illustrator 17.0.0, SVG Export Plug-In . SVG Version: 6.00 Build 0)  -->
<!DOCTYPE svg PUBLIC "-//W3C//DTD SVG 1.1//EN" "http://www.w3.org/Graphics/SVG/1.1/DTD/svg11.dtd">
<svg version="1.1" id="Layer_1" xmlns="http://www.w3.org/2000/svg" xmlns:xlink="http://www.w3.org/1999/xlink" x="0px" y="0px"
	 width="140px" height="160px" viewBox="0 0 140 160" style="enable-background:new 0 0 140 160;" xml:space="preserve">
<style type="text/css">
	.st0{fill:none;stroke:#032B5A;stroke-width:6;stroke-linecap:round;stroke-linejoin:round;}
</style>
<g>
	<g>
		<path class="st0" d="M121.6,120.4c19-25.6,16.1-62-7.8-84.3c-25.7-24-65.9-22.6-89.9,3.1C0,64.9,1.3,105.1,27,129.1
			c5.1,4.8,10.8,8.5,16.7,11.3l0,0c0.8,0.3,1.6,0.5,2.5,0.5c3.7,0,6.8-3,6.8-6.8l0-45.6H39.3c-1.7,0-3.5-0.6-4.8-2
			c-2.6-2.6-2.6-6.8,0-9.4l25.7-25.8c5.6-5.6,14.7-5.6,20.4,0l25.8,25.8c2.6,2.6,2.6,6.8,0,9.4c-1.3,1.3-3.1,2-4.8,2H87.8l0,45.6
			c0,3.7,3,6.8,6.8,6.8c0.9,0,1.7-0.2,2.5-0.5c3.9-1.8,7.6-4,11.1-6.6"/>
	</g>
</g>
</svg>
