<?xml version="1.0" encoding="utf-8"?>
<!-- Generator: Adobe Illustrator 17.0.0, SVG Export Plug-In . SVG Version: 6.00 Build 0)  -->
<!DOCTYPE svg PUBLIC "-//W3C//DTD SVG 1.1//EN" "http://www.w3.org/Graphics/SVG/1.1/DTD/svg11.dtd">
<svg version="1.1" id="Layer_1" xmlns="http://www.w3.org/2000/svg" xmlns:xlink="http://www.w3.org/1999/xlink" x="0px" y="0px"
	 width="140px" height="160px" viewBox="0 0 140 160" style="enable-background:new 0 0 140 160;" xml:space="preserve">
<style type="text/css">
	.st0{fill:none;stroke:#032B5A;stroke-width:6;stroke-linecap:round;stroke-linejoin:round;}
</style>
<g>
	<g>
		<path class="st0" d="M90.8,112h28.3l-28.3,28.3V112L90.8,112z M20.9,106.9V32.5c0-7,5.7-12.7,12.7-12.7l72.9,0
			c7,0,12.7,5.7,12.7,12.7V112 M90.8,140.3H33.6c-7,0-12.7-5.7-12.7-12.7v-4.6 M84.2,54.6c-2.4-1.3-5.1-2.1-8-2.1
			c-9.1,0-16.4,7.4-16.4,16.4v10.6v22.7 M51.3,102.3h32.9 M51.3,78.3h25.1"/>
	</g>
</g>
</svg>
