<?xml version="1.0" encoding="UTF-8" ?>
<!DOCTYPE svg PUBLIC "-//W3C//DTD SVG 1.1//EN" "http://www.w3.org/Graphics/SVG/1.1/DTD/svg11.dtd">
<svg width="62pt" height="62pt" viewBox="0 0 62 62" version="1.1" xmlns="http://www.w3.org/2000/svg">
<g id="#990000ff">
<path fill="#990000" opacity="1.00" d=" M 28.36 3.44 C 37.90 2.43 47.74 6.85 53.34 14.64 C 60.41 24.02 60.49 38.02 53.32 47.36 C 52.10 49.50 48.57 47.34 50.14 45.33 C 52.59 41.28 54.70 36.85 54.73 32.02 C 55.27 22.50 49.40 13.09 40.67 9.30 C 33.69 6.13 25.18 6.67 18.66 10.71 C 11.69 14.89 7.16 22.86 7.25 31.00 C 7.20 37.94 10.42 44.80 15.77 49.21 C 21.76 54.31 30.37 56.08 37.88 53.74 C 40.88 52.97 43.35 51.02 46.15 49.77 C 48.11 49.49 49.05 52.34 47.36 53.31 C 38.21 60.34 24.56 60.43 15.20 53.74 C 6.09 47.59 1.44 35.68 3.98 24.98 C 6.32 13.52 16.70 4.37 28.36 3.44 Z" />
<path fill="#990000" opacity="1.00" d=" M 29.34 14.32 C 30.66 12.64 33.25 13.85 32.89 15.92 C 32.95 21.95 33.10 28.00 32.81 34.03 C 32.96 36.25 28.97 36.19 29.18 33.97 C 29.05 27.43 28.76 20.84 29.34 14.32 Z" />
<path fill="#990000" opacity="1.00" d=" M 30.17 39.18 C 32.35 38.51 34.73 40.67 34.16 42.91 C 33.84 45.46 30.20 46.45 28.60 44.46 C 26.96 42.80 27.90 39.66 30.17 39.18 Z" />
</g>
</svg>
