<?xml version="1.0" encoding="utf-8"?>
<!-- Generator: Adobe Illustrator 17.0.0, SVG Export Plug-In . SVG Version: 6.00 Build 0)  -->
<!DOCTYPE svg PUBLIC "-//W3C//DTD SVG 1.1//EN" "http://www.w3.org/Graphics/SVG/1.1/DTD/svg11.dtd">
<svg version="1.1" id="Layer_1" xmlns="http://www.w3.org/2000/svg" xmlns:xlink="http://www.w3.org/1999/xlink" x="0px" y="0px"
	 width="140px" height="160px" viewBox="0 0 140 160" style="enable-background:new 0 0 140 160;" xml:space="preserve">
<style type="text/css">
	.st0{fill:none;stroke:#032B5A;stroke-width:6;stroke-linecap:round;stroke-linejoin:round;}
</style>
<g>
	<path class="st0" d="M85.6,128.9h26.9l-26.9,26.9V128.9L85.6,128.9z M112.4,128.9V67.1 M19.2,124.1V53.5c0-6.7,5.4-12.1,12.1-12.1
		l38.3,0 M85.6,155.8H31.2c-6.7,0-12-5.4-12-12v-19.6 M79.2,74.5c-2.2-1.3-4.8-2-7.6-2c-8.6,0-15.6,7-15.6,15.6v10.1v21.6
		 M48.1,119.7h31.2 M48.1,97h23.8"/>
	<path class="st0" d="M112.6,10.1c1.3,0,2.3,1,2.3,2.3v27.1c0,2.7-2.2,5-5,5H87.8c-2.7,0-5-2.2-5-5V12.5c0-1.3,1-2.3,2.3-2.3h3.5
		c1.3,0,2.3-1,2.3-2.3V5 M96.6,10.1h8.1c1.3,0,2.3-1,2.3-2.3V5 M93.7,24.4l6-6v16.7 M120.6,15.5c0.7,0.4,1.1,1.2,1.1,2v28.8
		c0,2.7-2.2,5-5,5H90.2c-0.9,0-1.6-0.5-2-1.2"/>
</g>
</svg>
