<?xml version="1.0" encoding="UTF-8" ?>
<!DOCTYPE svg PUBLIC "-//W3C//DTD SVG 1.1//EN" "http://www.w3.org/Graphics/SVG/1.1/DTD/svg11.dtd">
<svg width="62pt" height="62pt" viewBox="0 0 62 62" version="1.1" xmlns="http://www.w3.org/2000/svg">
<g id="#4196cfff">
<path fill="#ffffff" opacity="1.00" d=" M 7.95 11.96 C 16.87 1.18 33.61 -1.78 45.68 5.30 C 54.83 10.40 60.98 20.50 61.08 31.00 C 61.36 40.15 57.06 49.25 49.97 55.00 C 44.83 59.30 38.25 61.42 31.65 62.00 L 30.52 62.00 C 20.96 61.50 11.48 56.91 6.10 48.84 C -1.73 38.01 -0.91 21.96 7.95 11.96 M 24.88 19.56 C 28.74 23.69 32.84 27.60 36.84 31.60 C 32.89 35.58 28.93 39.56 24.93 43.51 C 25.77 44.38 26.61 45.25 27.45 46.13 C 32.35 41.32 37.21 36.46 42.04 31.57 C 37.20 26.75 32.37 21.93 27.57 17.08 C 26.67 17.91 25.78 18.73 24.88 19.56 Z" />
</g>
<g id="#ffffffff">
<path fill="#46A1DB" opacity="1.00" d=" M 24.88 19.56 C 25.78 18.73 26.67 17.91 27.57 17.08 C 32.37 21.93 37.20 26.75 42.04 31.57 C 37.21 36.46 32.35 41.32 27.45 46.13 C 26.61 45.25 25.77 44.38 24.93 43.51 C 28.93 39.56 32.89 35.58 36.84 31.60 C 32.84 27.60 28.74 23.69 24.88 19.56 Z" />
</g>
</svg>