<?xml version="1.0" encoding="utf-8"?>
<!-- Generator: Adobe Illustrator 17.0.0, SVG Export Plug-In . SVG Version: 6.00 Build 0)  -->
<!DOCTYPE svg PUBLIC "-//W3C//DTD SVG 1.1//EN" "http://www.w3.org/Graphics/SVG/1.1/DTD/svg11.dtd">
<svg version="1.1" id="Layer_1" xmlns="http://www.w3.org/2000/svg" xmlns:xlink="http://www.w3.org/1999/xlink" x="0px" y="0px"
	 width="140px" height="160px" viewBox="0 0 140 160" style="enable-background:new 0 0 140 160;" xml:space="preserve">
<style type="text/css">
	.st0{fill:none;stroke:#032B5A;stroke-width:6;stroke-linecap:round;stroke-linejoin:round;}
</style>
<g>
	<g>
		<path class="st0" d="M92.6,68.3L81.3,95.6l0,0c-3.5-1.4-7.3-2.2-11.3-2.2c-10.7,0-20,5.6-25.2,14.1l0.1-0.2
			c-1.1,1.6-2.9,2.7-5,2.7c-0.8,0-1.5-0.2-2.2-0.4l-29-12.4C6.5,96.2,5,94,5,91.5c0-1,0.2-1.9,0.7-2.7l0,0.1
			C17.8,65.8,42.1,50.1,70,50.1c27.9,0,52.2,15.7,64.4,38.7l0,0c0.4,0.8,0.7,1.7,0.7,2.7c0,2.5-1.5,4.6-3.7,5.5l-29.1,12.3
			c-0.7,0.3-1.4,0.4-2.2,0.4c-2.1,0-3.9-1.1-5-2.7L95,107c-0.9-1.4-2-2.8-3.1-4"/>
	</g>
</g>
</svg>
