<?xml version="1.0" encoding="utf-8"?>
<!-- Generator: Adobe Illustrator 17.0.0, SVG Export Plug-In . SVG Version: 6.00 Build 0)  -->
<!DOCTYPE svg PUBLIC "-//W3C//DTD SVG 1.1//EN" "http://www.w3.org/Graphics/SVG/1.1/DTD/svg11.dtd">
<svg width="1.5em" height="1.5em" viewBox="0 0 62 62" version="1.1" xmlns="http://www.w3.org/2000/svg">
        <g id="#4197cfff">
        <path fill="#4197cf" opacity="1.00" d=" M 24.21 1.23 C 38.24 -2.55 54.14 5.44 59.49 18.94 C 65.49 32.45 59.75 49.74 46.81 56.91 C 33.83 64.91 15.27 60.90 6.73 48.27 C -1.99 36.45 -0.23 18.48 10.67 8.62 C 14.43 5.02 19.17 2.49 24.21 1.23 M 28.97 14.65 C 28.98 16.55 28.98 18.45 28.98 20.35 C 30.99 20.35 33.00 20.35 35.01 20.34 C 35.02 18.44 35.02 16.55 35.03 14.65 C 33.01 14.65 30.99 14.64 28.97 14.65 M 28.99 24.66 C 29.00 32.11 29.00 39.55 29.01 47.00 C 31.00 47.00 33.00 47.00 35.00 47.00 C 35.00 39.55 35.00 32.11 35.00 24.66 C 33.00 24.66 31.00 24.66 28.99 24.66 Z" />
        </g>
        <g id="#ffffffff">
        <path fill="#ffffff" opacity="1.00" d=" M 28.97 14.65 C 30.99 14.64 33.01 14.65 35.03 14.65 C 35.02 16.55 35.02 18.44 35.01 20.34 C 33.00 20.35 30.99 20.35 28.98 20.35 C 28.98 18.45 28.98 16.55 28.97 14.65 Z" />
        <path fill="#ffffff" opacity="1.00" d=" M 28.99 24.66 C 31.00 24.66 33.00 24.66 35.00 24.66 C 35.00 32.11 35.00 39.55 35.00 47.00 C 33.00 47.00 31.00 47.00 29.01 47.00 C 29.00 39.55 29.00 32.11 28.99 24.66 Z" />
        </g>
</svg>