<?xml version="1.0" encoding="utf-8"?>
<!-- Generator: Adobe Illustrator 17.0.0, SVG Export Plug-In . SVG Version: 6.00 Build 0)  -->
<!DOCTYPE svg PUBLIC "-//W3C//DTD SVG 1.1//EN" "http://www.w3.org/Graphics/SVG/1.1/DTD/svg11.dtd">
<svg version="1.1" id="Layer_1" xmlns="http://www.w3.org/2000/svg" xmlns:xlink="http://www.w3.org/1999/xlink" x="0px" y="0px"
	 width="140px" height="160px" viewBox="0 0 140 160" style="enable-background:new 0 0 140 160;" xml:space="preserve">
<style type="text/css">
	.st0{fill:none;stroke:#032B5A;stroke-width:6;stroke-linecap:round;stroke-linejoin:round;}
</style>
<g>
	<g>
		<path class="st0" d="M122.9,57v40.7L94,126.6H70.1 M24.3,80.2V57l28.9-28.9H94l29,29 M53.3,76.5c15.4,3.9,24.8,19.5,20.9,35
			c-3.9,15.4-19.5,24.8-35,20.9c-15.4-3.9-24.8-19.5-20.9-35c1.2-4.9,3.6-9.2,6.9-12.7 M64,65.7c15.4,3.9,24.8,19.5,20.9,35
			c-1.3,5.3-4.1,10-7.8,13.6 M90.9,100.5l-13.8,13.8l-11.2,11.2 M25.2,84.7l6.4-6.4l18.6-18.6 M99.3,79.2c0.3,7.7-2.5,15.5-8.4,21.4
			 M50.1,59.8c5.4-5.4,12.4-8.2,19.5-8.4"/>
	</g>
</g>
</svg>
