<?xml version="1.0" encoding="utf-8"?>
<!-- Generator: Adobe Illustrator 17.0.0, SVG Export Plug-In . SVG Version: 6.00 Build 0)  -->
<!DOCTYPE svg PUBLIC "-//W3C//DTD SVG 1.1//EN" "http://www.w3.org/Graphics/SVG/1.1/DTD/svg11.dtd">
<svg version="1.1" id="Layer_1" xmlns="http://www.w3.org/2000/svg" xmlns:xlink="http://www.w3.org/1999/xlink" x="0px" y="0px"
	 width="42px" height="42px" viewBox="0 0 140 160" style="enable-background:new 0 0 140 160;" xml:space="preserve">
<style type="text/css">
	.st00{fill:none;stroke:#990500;stroke-width:6;stroke-linecap:round;stroke-linejoin:round;}
	.st11{fill:#FFFFFF;stroke:#990500;stroke-miterlimit:10;}
</style>
<g>
	<line class="st00" x1="70.1" y1="41.2" x2="70.1" y2="86.4"/>
	<path class="st11" d="M72.2,105.4c0.6,0.6,1,1.4,1,2.3c0,1.7-1.4,3.1-3.1,3.1c-1.7,0-3.1-1.4-3.1-3.1c0-1.7,1.4-3.1,3.1-3.1
		c0.5,0,1,0.1,1.4,0.3"/>
	<g>
		<path class="st00" d="M72.2,105.4c0.6,0.6,1,1.4,1,2.3c0,1.7-1.4,3.1-3.1,3.1c-1.7,0-3.1-1.4-3.1-3.1c0-1.7,1.4-3.1,3.1-3.1
			c0.5,0,1,0.1,1.4,0.3 M121.5,117.6c8.5-11.5,13.2-25.9,12.4-41.3C132,41.1,102,14,66.8,15.9C31.5,17.7,4.5,47.8,6.3,83
			c1.8,35.2,31.9,62.3,67.1,60.5c13-0.7,24.9-5.2,34.6-12.4"/>
	</g>
</g>
</svg>
