<?xml version="1.0" encoding="UTF-8" ?>
<!DOCTYPE svg PUBLIC "-//W3C//DTD SVG 1.1//EN" "http://www.w3.org/Graphics/SVG/1.1/DTD/svg11.dtd">
<svg width="62pt" height="62pt" viewBox="0 0 62 62" version="1.1" xmlns="http://www.w3.org/2000/svg">
<g id="#ff9900ff">
<path fill="#ff9900" opacity="1.00" d=" M 28.38 3.43 C 38.15 2.41 48.21 7.08 53.74 15.20 C 60.58 24.78 60.36 38.93 52.75 48.01 C 51.06 49.00 48.87 46.95 50.12 45.33 C 52.44 41.55 54.45 37.45 54.68 32.95 C 55.46 24.38 51.13 15.61 43.84 11.03 C 37.66 6.98 29.54 6.12 22.63 8.77 C 15.50 11.41 9.85 17.69 8.01 25.07 C 5.92 32.83 8.19 41.55 13.76 47.32 C 19.73 53.76 29.43 56.38 37.81 53.76 C 40.84 52.99 43.36 51.08 46.12 49.73 C 48.06 49.49 49.07 52.33 47.37 53.31 C 40.84 58.29 31.94 59.88 24.02 57.79 C 14.92 55.52 7.28 48.24 4.57 39.25 C 2.03 31.25 3.39 22.11 8.23 15.24 C 12.78 8.58 20.35 4.15 28.38 3.43 Z" />
<path fill="#ff9900" opacity="1.00" d=" M 29.43 14.24 C 30.79 12.64 33.30 13.96 32.90 15.97 C 32.92 21.97 33.11 28.00 32.81 33.99 C 33.16 36.26 28.79 36.23 29.18 33.95 C 29.10 27.41 28.65 20.73 29.43 14.24 Z" />
<path fill="#ff9900" opacity="1.00" d=" M 30.23 39.17 C 32.41 38.54 34.75 40.72 34.16 42.95 C 33.81 45.47 30.21 46.44 28.61 44.48 C 26.95 42.82 27.91 39.60 30.23 39.17 Z" />
</g>
</svg>
