<?xml version="1.0" encoding="UTF-8" ?>
<!DOCTYPE svg PUBLIC "-//W3C//DTD SVG 1.1//EN" "http://www.w3.org/Graphics/SVG/1.1/DTD/svg11.dtd">
<svg width="132pt" height="132pt" viewBox="0 0 132 132" version="1.1" xmlns="http://www.w3.org/2000/svg">
<g id="#ffffffff">
</g>
<g id="#032b5aff">
<path fill="#032b5a" opacity="1.00" d=" M 62.87 0.00 L 69.27 0.00 C 85.70 0.85 101.73 7.97 113.18 19.80 C 124.48 31.22 131.23 46.90 132.00 62.93 L 132.00 69.27 C 131.16 85.70 124.02 101.73 112.19 113.18 C 100.79 124.47 85.15 131.19 69.15 132.00 L 62.74 132.00 C 45.84 131.14 29.37 123.59 17.83 111.17 C 7.10 99.86 0.77 84.62 0.00 69.07 L 0.00 62.73 C 0.74 51.58 3.93 40.43 10.07 31.03 C 12.94 27.17 19.88 30.09 18.98 34.90 C 17.55 39.17 14.67 42.84 13.42 47.21 C 7.86 62.51 9.52 80.20 17.79 94.21 C 25.84 108.06 40.10 118.13 55.89 120.91 C 71.51 123.88 88.32 119.70 100.71 109.75 C 111.20 101.43 118.59 89.28 120.92 76.07 C 123.55 62.12 120.52 47.20 112.69 35.35 C 104.63 23.05 91.57 14.11 77.10 11.28 C 62.38 8.25 46.45 11.48 34.16 20.14 C 32.42 21.43 29.97 22.50 27.93 21.25 C 24.70 19.99 24.03 14.98 26.78 12.89 C 37.15 5.08 49.94 0.72 62.87 0.00 Z" >
<animateTransform attributeType="xml" attributeName="transform" type="rotate" from="0 66 66" to="360 66 66" dur="1s" repeatCount="indefinite"/>
</path>	
<path fill="#032b5a" opacity="1.00" d=" M 32.36 34.38 C 34.35 33.13 37.08 33.53 38.72 35.17 C 47.36 43.54 55.92 52.02 64.58 60.38 C 65.49 61.57 67.29 61.17 68.04 60.04 C 73.06 55.08 78.11 50.14 83.17 45.22 C 84.93 43.22 88.29 43.04 90.26 44.84 C 92.22 46.47 92.63 49.87 90.72 51.68 C 85.45 57.08 79.95 62.24 74.58 67.53 C 70.24 71.89 62.53 72.11 58.01 67.91 C 49.21 59.41 40.47 50.84 31.75 42.26 C 29.23 40.26 29.62 35.99 32.36 34.38 Z" />
</g>
</svg>
